<?xml version="1.0" encoding="UTF-8" standalone="no"?>
<!-- Created with Inkscape (http://www.inkscape.org/) -->

<svg
   xmlns:dc="http://purl.org/dc/elements/1.1/"
   xmlns:cc="http://creativecommons.org/ns#"
   xmlns:rdf="http://www.w3.org/1999/02/22-rdf-syntax-ns#"
   xmlns:svg="http://www.w3.org/2000/svg"
   xmlns="http://www.w3.org/2000/svg"
   xmlns:sodipodi="http://sodipodi.sourceforge.net/DTD/sodipodi-0.dtd"
   xmlns:inkscape="http://www.inkscape.org/namespaces/inkscape"
   width="765.59998"
   height="246.10001"
   id="svg2"
   version="1.1"
   inkscape:version="0.48.1 r9760"
   style="display:inline"
   sodipodi:docname="lernfunk-logo-03.svg">
  <defs
     id="defs4" />
  <sodipodi:namedview
     id="base"
     pagecolor="#ffffff"
     bordercolor="#666666"
     borderopacity="1.0"
     inkscape:pageopacity="0.0"
     inkscape:pageshadow="2"
     inkscape:zoom="0.49497475"
     inkscape:cx="929.01501"
     inkscape:cy="283.38094"
     inkscape:document-units="px"
     inkscape:current-layer="layer2"
     showgrid="true"
     showguides="true"
     inkscape:snap-global="true"
     inkscape:window-width="1280"
     inkscape:window-height="749"
     inkscape:window-x="-2"
     inkscape:window-y="0"
     inkscape:window-maximized="1"
     fit-margin-top="0.3"
     fit-margin-right="0.3"
     fit-margin-left="0.3"
     fit-margin-bottom="0.3">
    <inkscape:grid
       type="xygrid"
       id="grid3816"
       empspacing="5"
       visible="true"
       enabled="true"
       snapvisiblegridlinesonly="true" />
  </sodipodi:namedview>
  <metadata
     id="metadata7">
    <rdf:RDF>
      <cc:Work
         rdf:about="">
        <dc:format>image/svg+xml</dc:format>
        <dc:type
           rdf:resource="http://purl.org/dc/dcmitype/StillImage" />
        <dc:title />
      </cc:Work>
    </rdf:RDF>
  </metadata>
  <g
     inkscape:groupmode="layer"
     id="layer2"
     inkscape:label="path"
     style="display:inline"
     transform="translate(-4.7,-478.79448)">
    <path
       style="fill:#3c3c3c;fill-opacity:1;stroke:none"
       d="m 5,724.09448 0,-55 15,0 0,40 40,0 0,15 z"
       id="path3818"
       inkscape:connector-curvature="0" />
    <path
       style="fill:#3c3c3c;fill-opacity:1;stroke:none"
       d="m 75,669.09448 55,0 0,15 -40,0 0,5 25,0 0,10 -25,0 0,10 40,0 0,15 -55,0 z"
       id="path3820"
       inkscape:connector-curvature="0"
       sodipodi:nodetypes="ccccccccccccc" />
    <path
       style="fill:#3c3c3c;fill-opacity:1;stroke:none;stroke-width:1px;stroke-linecap:butt;stroke-linejoin:miter;stroke-opacity:1"
       d="m 145,669.09448 0,55 15,0 0,-20 15,0 20,20 20,0 -20,-20 10,0 c 10,-10 10,-25 0,-35 z m 15,10.00073 30,0 c 10,0 5,9.99927 5,9.99927 l -35,0 z"
       id="path3822"
       inkscape:connector-curvature="0"
       sodipodi:nodetypes="cccccccccccccccc" />
    <path
       style="fill:#3c3c3c;fill-opacity:1;stroke:none"
       d="m 230,724.09448 0,-55 15,0 40,35 0,-35 15,0 0,55 -15,0 -40,-35 0,35 z"
       id="path3834"
       inkscape:connector-curvature="0"
       sodipodi:nodetypes="ccccccccccc" />
    <path
       style="fill:#ff964d;fill-opacity:1;stroke:none"
       d="m 320,724.09448 15,0 0,-75 25,0 0,-10 -25,0 0,-15 45,0 0,-15 -50,0 0,-15 -5,0 0,15 -50,0 0,15 45,0 0,15 -25,0 0,10 25,0 z"
       id="path3840"
       inkscape:connector-curvature="0"
       sodipodi:nodetypes="ccccccccccccccccccccc" />
    <path
       style="fill:#3c3c3c;fill-opacity:1;stroke:none"
       d="m 355,669.09448 15,0 0,40 35,0 0,-40 15,0 0,45 c 0,5 0,10 -10,10 l -45,0 c -10,0 -10,-5 -10,-10 z"
       id="path3842"
       inkscape:connector-curvature="0"
       sodipodi:nodetypes="ccccccccccc" />
    <path
       style="fill:#3c3c3c;fill-opacity:1;stroke:none;display:inline"
       d="m 435,724.09448 0,-55 15,0 40,35 0,-35 15,0 0,55 -15,0 -40,-35 0,35 z"
       id="path3834-0"
       inkscape:connector-curvature="0"
       sodipodi:nodetypes="ccccccccccc" />
    <path
       style="fill:#3c3c3c;fill-opacity:1;stroke:none"
       d="m 610,724.09448 c 5,0 10,-5 10,-10 0,-5 -5,-10 -10,-10 -5,0 -10,5 -10,10 0,5 5,10 10,10 z"
       id="path3864"
       inkscape:connector-curvature="0"
       sodipodi:nodetypes="ccccc" />
    <path
       style="fill:#3c3c3c;fill-opacity:1;stroke:none;display:inline"
       d="m 520,669.09448 0,55 15,0 0,-25 35,25 20,0 -40,-30 35,-25 -20,0 -30,20 0,-20 z"
       id="path3862"
       inkscape:connector-curvature="0"
       sodipodi:nodetypes="cccccccccccc" />
    <path
       style="fill:#3c3c3c;fill-opacity:1;stroke:none"
       d="m 635,669.09448 0,55 40,0 c 25,0 25,-20 25,-25 l 0,-5 c 0,-5 0,-25 -25,-25 l -40,0 z m 15,15 25,0 c 10,0 10,5 10,10 l 0,5 c 0,5 0,10 -10,10 l -25,0 0,-25 z"
       id="path3867"
       inkscape:connector-curvature="0" />
    <path
       style="fill:#3c3c3c;fill-opacity:1;stroke:none;display:inline"
       d="m 715,669.09448 55,0 0,15 -40,0 0,5 25,0 0,10 -25,0 0,10 40,0 0,15 -55,0 z"
       id="path3820-6"
       inkscape:connector-curvature="0"
       sodipodi:nodetypes="ccccccccccccc" />
    <path
       style="fill:#ff9b4d;fill-opacity:1;stroke:none"
       d="m 315,574.09448 -5,5 40,-5 -5,20 55,-5 -5,45 5,-5 10,-50 -60,10 10,-25 z"
       id="path2996"
       inkscape:connector-curvature="0"
       sodipodi:nodetypes="ccccccccccc" />
    <path
       style="fill:#ff9b4d;fill-opacity:1;stroke:none"
       d="m 375,549.09448 -10,25 60,-10 -15,90 10,-15 20,-90 -70,20 20,-35 -85,20 -15,10 z"
       id="path3806"
       inkscape:connector-curvature="0"
       sodipodi:nodetypes="ccccccccccc" />
    <path
       style="fill:#ff9b4d;fill-opacity:1;stroke:none;display:inline"
       d="m 400,509.09448 0,25 5,-5 15,-40 -120,35 -15,10 z"
       id="path3806-4"
       inkscape:connector-curvature="0"
       sodipodi:nodetypes="ccccccc" />
    <path
       sodipodi:nodetypes="ccccccc"
       inkscape:connector-curvature="0"
       id="path3883"
       d="m 430,539.09448 45,-5 -35,90 10,-15 50,-90 -65,15 z"
       style="fill:#ff9b4d;fill-opacity:1;stroke:none;display:inline" />
    <path
       style="fill:#ff9b4d;fill-opacity:1;stroke:none"
       d="m 435,494.09448 35,-15 0,20 -5,20 -5,-30 -30,10 z"
       id="path3885"
       inkscape:connector-curvature="0"
       sodipodi:nodetypes="ccccccc" />
  </g>
</svg>
